<svg xmlns="http://www.w3.org/2000/svg" id="Layer_1" viewBox="0 0 200 200" width="200" height="200"><style>.st0{fill:#ffcb05}.st0,.st1,.st2{fill-rule:evenodd;clip-rule:evenodd}.st1{fill:#231f20}.st2{fill:#fff}</style><path d="M99.9 1.7c54.2 0 98.2 44 98.2 98.2s-44 98.2-98.2 98.2-98.2-44-98.2-98.2C1.6 45.7 45.6 1.7 99.9 1.7z" class="st0"/><path d="M99.8 180.5c2.4 0 4.4-2 4.4-4.4 0-2.4-2-4.4-4.4-4.4-2.4 0-4.4 2-4.4 4.4 0 2.5 2 4.4 4.4 4.4zM62.1 43.9c-2.2 1-3.1 2.7-3.6 3.1l-1.2.7.3.3c2.5-1.4 3.6 2.1 7.1.1 1.2-.7 2.7-1.7 3.9-2.4 1.8-1 2.6-.3 4-.4-.9-.9-8.8-2.4-10.5-1.4zm-10.6 8.8c-2.3 2-2.8 4.2-3.2 4.8l-1.2 1.3.4.2c2.5-2.4 4.9 1.2 8.4-2.3 1.2-1.2 2.7-2.9 3.8-4.1 1.7-1.8 3-1.3 4.6-1.8-1.3-.7-11.1.2-12.8 1.9zM132.4 40c-1.9-.5-6.4-7.2-6.4-8.3 1 .9 1.1 2 3.1 2.6 1.3.4 3.1.7 4.4 1.1 2.7.7 2.7 2.5 3.4 3.8 3.8 2.6 7.3 5.5 10.4 8.8C159.5 60.6 167 78 167 97.2c0 19.2-7.5 36.6-19.7 49.2-12.2 12.6-29.1 20.4-47.7 20.4s-35.5-7.8-47.7-20.4c-12.2-12.6-19.7-30-19.7-49.2 0-19.2 7.5-36.6 19.7-49.2 3.2-3.3 6.7-6.3 10.5-8.9.7-1.3.7-3 3.4-3.8 1.3-.4 3.1-.8 4.4-1.1 2-.5 2.1-1.6 3.1-2.6 0 1.2-4.4 7.8-6.4 8.3-2.3.9-4.1.3-4.7.4l-.2.1c-3.4 2.4-6.6 5.1-9.5 8.1-12 12.5-19.4 29.7-19.4 48.6 0 19 7.4 36.2 19.5 48.6 12 12.4 28.7 20.1 47 20.1 18.4 0 35-7.7 47-20.1 12-12.4 19.5-29.6 19.5-48.6s-7.4-36.2-19.5-48.6c-2.9-3-6.1-5.7-9.5-8.2h-.1c-.6 0-2.3.5-4.6-.3zm4.8 3.9c-1.8-1-9.7.5-10.5 1.3 1.4 0 2.2-.6 4 .4 1.2.7 2.7 1.7 3.9 2.4 3.5 2 4.6-1.4 7.1-.1l.3-.3-1.2-.7c-.5-.3-1.3-1.9-3.6-3zm1.4-6.4c1.3 2 3.1 2.7 3.6 3l.9 1.1.2-.3c-1.7-2.3 1.5-3.9-1-7-.9-1.1-2.1-2.4-2.9-3.5-1.3-1.6-.7-2.5-1-3.9-.8 1-1 9 .2 10.6zm9.4 7.1c1.5 2.3 3.5 3 4 3.4l1 1.2.2-.3c-1.9-2.5 1.6-4.3-1.1-7.8-1-1.2-2.3-2.7-3.3-3.9-1.4-1.8-.8-2.8-1.1-4.3-.8 1.1-1.1 10 .3 11.7zm-.2 8.1c-1.7-1.8-11.5-2.7-12.7-2 1.6.5 2.8 0 4.6 1.8 1.2 1.2 2.6 2.9 3.8 4.1 3.4 3.5 5.9-.1 8.4 2.3l.4-.2-1.2-1.3c-.6-.5-1-2.7-3.3-4.7zm8.2-1.1c.9 3.1 2.8 4.5 3.2 5.2l.7 1.7.4-.3c-1.2-3.5 3.3-4.2 1.5-9-.6-1.7-1.6-3.8-2.3-5.5-1-2.5.1-3.4.3-5.2-1.2 1-4.7 10.7-3.8 13.1zm5.8 9.4c0 3.6 1.6 5.8 1.8 6.6l.2 2.1.5-.2c-.2-4.2 5-3.5 4.5-9.3-.2-2-.5-4.7-.7-6.7-.3-3 1.2-3.7 2-5.5-1.7.5-8.6 10-8.3 13zm-4.7 5c-1.4-2.5-12.2-6.5-13.8-6.1 1.7 1.1 3.2.8 4.6 3.4 1 1.7 2.1 4.1 3.1 5.8 2.8 5 6.7 1.6 8.8 5.2l.5-.1-1-1.8c-.3-.8-.2-3.4-2.2-6.4zm10.7 5.8c-.9 3.4.2 5.9.2 6.8l-.3 2 .5-.1c.7-4.1 5.6-2.2 6.5-7.9.3-2 .6-4.6.9-6.6.4-2.9 2-3.3 3.2-4.9-1.8.3-10.6 7.8-11 10.7zm-5.5 11.3c-.7-2.8-10.1-9.5-11.8-9.5 1.3 1.5 2.9 1.7 3.6 4.5.5 1.9 1 4.5 1.4 6.4 1.4 5.6 6 3.3 7.1 7.3h.5l-.5-2c0-.9.9-3.4-.3-6.7zm8.5.5c1.1-2.7 11.3-8.2 12.9-8-1.5 1.3-3.1 1.3-4.2 4.1-.7 1.8-1.5 4.4-2.3 6.2-2.1 5.4-6.4 2.5-8 6.3l-.5-.1.8-1.9c.2-.8-.3-3.4 1.3-6.6zM173 96c-2.6 2.9-2.8 5.8-3.3 6.6l-1.4 1.8.5.2c2.8-3.5 6.5.7 10.2-4.3 1.3-1.7 2.9-4.1 4.2-5.9 1.9-2.6 3.6-2.1 5.5-3-1.5-.6-13.8 2.1-15.7 4.6zm-9.6 4.9c.1-3.1-7.8-12.8-9.6-13.3 1 1.9 2.5 2.6 2.5 5.7-.1 2.1-.3 5-.3 7.1-.1 6.2 5.3 5.2 5.4 9.6l.5.2V108c.2-.9 1.8-3.3 1.5-7.1zm6.9 9.4c-3 3.3-3.2 6.6-3.7 7.6L165 120l.6.2c3.2-4 7.4.8 11.7-4.9 1.5-2 3.3-4.7 4.8-6.7 2.2-3 4.1-2.4 6.3-3.5-1.9-.8-15.9 2.4-18.1 5.2zm-10.6 10.9c.7-3.2-5.2-14.6-6.9-15.5.6 2.1 2 3.1 1.3 6.3-.5 2.1-1.4 5-1.9 7.1-1.5 6.3 4.3 6.4 3.4 10.9l.5.3.5-2.2c.4-.9 2.6-3 3.1-6.9zm6.6 2.9c-3.6 2.6-4.5 5.8-5.2 6.7l-1.9 1.7.6.4c3.9-3.3 7.1 2.3 12.5-2.5 1.9-1.7 4.2-4 6-5.6 2.7-2.5 4.5-1.6 6.9-2.1-1.8-1.3-16.2-1-18.9 1.4zm-5.3 12.6c-4 1.9-5.5 4.9-6.3 5.7l-2.2 1.3.5.4c4.5-2.6 6.6 3.5 12.7-.2 2.1-1.3 4.8-3.2 6.9-4.5 3.1-1.9 4.7-.7 7.2-.9-1.5-1.4-15.7-3.6-18.8-1.8zm-9.9 11.5c-4.8 1.5-6.9 4.6-7.9 5.3l-2.7 1.1.5.6c5.4-2.1 6.8 5 14.3 1.8 2.6-1.1 5.9-2.8 8.5-3.9 3.8-1.7 5.4-.1 8.2.2-1.6-1.8-17.2-6.7-20.9-5.1zm1.2-15.5c.8-3.5-5.8-16.2-7.6-17.2.6 2.4 2.3 3.5 1.4 7.1-.6 2.4-1.5 5.5-2.1 7.9-1.6 7 4.8 7.1 3.7 12.1l.6.3.6-2.5c.5-1 2.8-3.4 3.4-7.7zM138 158.2c-5 .7-7.6 3.4-8.7 3.9l-2.8.7.4.7c5.7-1.2 5.8 6.1 13.7 4.3 2.7-.6 6.3-1.7 9-2.3 4.1-1 5.3.9 8 1.6-1.2-2.4-15.7-9.8-19.6-8.9zm1.7-8.9c2.5-2.6 3.6-16.9 2.6-18.7-.7 2.4.1 4.2-2.5 6.7-1.7 1.7-4.2 3.9-5.9 5.7-5.1 5.1.3 8.5-3.2 12.3l.3.6 1.8-1.8c.8-.6 4.1-1.4 6.9-4.8zM121.9 165c-5-.2-8.1 2-9.3 2.2l-2.9.1.2.7c5.8-.1 4.7 7.1 12.8 6.7 2.8-.1 6.5-.5 9.3-.7 4.2-.2 5.1 1.8 7.6 3-.7-2.3-13.6-12.2-17.7-12zm-.4-5.7c3.5-2.1 8.9-17.4 8.3-19.7-1.5 2.4-1.1 4.6-4.7 6.7-2.4 1.4-5.7 3.1-8.2 4.5-7 4.1-2.1 9.5-7.1 12.5l.2.7 2.5-1.5c1.1-.4 4.9-.3 9-3.2zM60.7 37.5c1.2-1.6 1-9.5.3-10.5-.3 1.3.3 2.3-1 3.9-.9 1.1-2.1 2.4-2.9 3.5-2.5 3.1.7 4.7-1 7l.2.3.9-1.1c.4-.5 2.1-1.1 3.5-3.1zm-9.4 7.1c1.4-1.8 1.1-10.7.3-11.7-.3 1.5.3 2.6-1.1 4.3-1 1.2-2.3 2.7-3.3 3.9-2.8 3.5.8 5.3-1.1 7.8l.2.3 1-1.2c.5-.4 2.5-1.1 4-3.4zm-8 7c.9-2.4-2.5-12.2-3.7-13 .2 1.8 1.3 2.7.3 5.2-.6 1.6-1.6 3.8-2.3 5.5-1.8 4.8 2.7 5.5 1.5 9l.4.3.7-1.7c.3-.8 2.2-2.2 3.1-5.3zM37.5 61c.2-2.9-6.6-12.5-8.2-13 .8 1.9 2.2 2.6 2 5.5-.2 2-.6 4.7-.7 6.7-.5 5.8 4.7 5.2 4.5 9.3l.5.2.2-2.1c.1-.9 1.8-3 1.7-6.6zm4.7 5c1.4-2.5 12.2-6.5 13.8-6.1-1.7 1.1-3.2.8-4.6 3.4-1 1.7-2.1 4.1-3.1 5.8-2.8 5-6.7 1.6-8.8 5.2l-.5-.1 1-1.8c.3-.8.2-3.4 2.2-6.4zm-10.7 5.8c-.5-2.9-9.2-10.4-10.9-10.6 1.2 1.6 2.7 1.9 3.2 4.9.3 2 .6 4.6.9 6.6.9 5.7 5.7 3.9 6.5 7.9l.5.1-.3-2c-.1-1 1-3.5.1-6.9zM37 83.1c-1.2 3.3-.3 5.9-.4 6.7l-.5 2h.5c1.1-4 5.7-1.7 7.1-7.3.5-1.9 1-4.5 1.4-6.4.7-2.9 2.3-3.1 3.6-4.5-1.6 0-11 6.7-11.7 9.5zm-8.5.5c1.6 3.2 1.1 5.8 1.3 6.7l.8 1.9-.6.1c-1.6-3.8-5.9-1-8-6.3-.7-1.9-1.5-4.4-2.3-6.2-1.1-2.8-2.6-2.8-4.2-4.1 1.7-.3 11.9 5.2 13 7.9zM26.3 96c-1.9-2.5-14.2-5.3-15.9-4.6 2 .9 3.6.4 5.5 3 1.3 1.7 2.9 4.1 4.2 5.9 3.8 5 7.4.8 10.2 4.3l.5-.2-1.4-1.8c-.3-.8-.5-3.7-3.1-6.6zm9.6 4.9c-.3 3.8 1.3 6.2 1.5 7.1v2.2l.5-.2c0-4.4 5.5-3.4 5.4-9.6 0-2.1-.3-5-.3-7.1-.1-3.2 1.5-3.8 2.5-5.7-1.8.5-9.7 10.1-9.6 13.3zm-6.9 9.4c-2.2-2.9-16.3-6-18.2-5.2 2.3 1 4.1.5 6.3 3.5 1.5 2 3.3 4.7 4.8 6.7 4.3 5.7 8.6.9 11.7 4.9l.6-.2-1.6-2.1c-.4-.9-.6-4.3-3.6-7.6zm10.6 10.9c.5 3.9 2.7 6 3 6.9l.5 2.2.5-.3c-.9-4.5 4.8-4.6 3.4-10.9-.5-2.2-1.3-5-1.9-7.1-.8-3.2.7-4.2 1.3-6.3-1.6.9-7.5 12.4-6.8 15.5zm-6.6 2.9c-2.7-2.4-17.1-2.7-18.9-1.5 2.4.6 4.2-.3 6.9 2.1 1.8 1.7 4.2 4 6 5.6 5.4 4.8 8.6-.8 12.5 2.5l.6-.4-1.9-1.7c-.7-.7-1.6-3.9-5.2-6.6zm5.3 12.6c-3.1-1.9-17.3.4-18.8 1.9 2.5.1 4-1.1 7.2.9 2.1 1.3 4.8 3.2 6.9 4.5 6.1 3.7 8.3-2.3 12.7.2l.5-.4-2.2-1.3c-.8-.8-2.3-3.8-6.3-5.8zm9.9 11.5c-3.8-1.6-19.3 3.3-20.8 5.2 2.8-.2 4.3-1.8 8.2-.2 2.6 1.1 5.9 2.8 8.5 3.9 7.5 3.2 8.9-4 14.3-1.8l.5-.6-2.7-1.1c-1-.8-3.2-3.9-8-5.4zM47 132.7c.6 4.4 3 6.7 3.4 7.7l.6 2.5.6-.3c-1-5 5.4-5.1 3.8-12.1-.6-2.4-1.5-5.6-2.1-7.9-.9-3.6.8-4.7 1.4-7.1-2 .9-8.5 13.6-7.7 17.2zm14.3 25.5c-4-.9-18.4 6.6-19.6 8.7 2.7-.7 4-2.6 8-1.6 2.7.6 6.3 1.7 9 2.3 7.9 1.8 8.1-5.4 13.7-4.3l.4-.7-2.8-.7c-1-.3-3.7-3-8.7-3.7zm-1.7-8.9c2.8 3.4 6.1 4.1 6.9 4.8l1.8 1.8.3-.6c-3.5-3.7 1.9-7.2-3.2-12.3-1.7-1.7-4.2-3.9-5.9-5.7-2.6-2.6-1.8-4.4-2.5-6.7-1 1.9.1 16.2 2.6 18.7zM77.4 165c-4.1-.2-17 9.8-17.7 12 2.5-1.2 3.4-3.2 7.6-3 2.8.2 6.5.5 9.3.7 8.1.4 6.9-6.8 12.8-6.7l.2-.7-2.9-.1c-1.2-.3-4.3-2.5-9.3-2.2zm.4-5.7c4.1 2.9 7.9 2.8 9 3.2l2.5 1.5.2-.7c-4.9-3.1 0-8.5-7.1-12.5-2.4-1.4-5.8-3.1-8.2-4.5-3.6-2.1-3.3-4.3-4.7-6.7-.6 2.3 4.8 17.6 8.3 19.7zm31.6 20.2c-1.4 0-2.5-1.1-2.5-2.5s1.1-2.5 2.5-2.5 2.5 1.1 2.5 2.5-1.1 2.5-2.5 2.5zm-19.4 0c-1.4 0-2.5-1.1-2.5-2.5s1.1-2.5 2.5-2.5 2.5 1.1 2.5 2.5-1.1 2.5-2.5 2.5z" class="st1"/><path d="M121.1 98.3c.3 2 .5 4.1.5 6.3 1.2.3 2 1.3 2.4 2.6.2.5.2 1.1.2 1.7 0 .6-.1 1.2-.2 1.7-.4 1.3-1.2 2.4-2.4 2.7.1 1.4.8 2.9 2.2 4 1.7 1.3 4.4 2.2 8.5 2.2h1.2l-.5 1.1-4 7.9-.2.4H118h1.2c-2.9 0-5.3-.9-7-2.3-1.7-1.5-2.6-3.6-2.6-6.1v-3.7c0-1.6-.4-2.5-.9-2.9-.6-.4-1.4-.5-2.2-.5h-.7v-.7l.1-9.3c0-1.3-.5-2.1-1.3-2.4-.7-.3-2.3-.3-3.1 0-.7.3-1.3 1.1-1.3 2.2v4.9h-2v4.7c0 2 .6 2.6 1.3 3.3 1.2 1.2 2.6 2.6 2.6 8.7 0 4.3-1.9 8.4-4.8 11.3-2.9 2.9-7 4.8-11.4 4.8h-7.7c-2 0-3.4-.5-4.3-1.3-1.1-.9-1.6-2.2-1.6-3.8 0-3.8 2.7-5 5.1-6.1 1.5-.7 2.8-1.2 2.8-2.4 0-1.6-1.6-2.3-3.1-2.9-1.8-.8-3.4-1.5-3.4-3.5 0-1.2.4-2 1.2-2.7.7-.6 1.7-1.2 3-1.9 2-1 3.2-1.9 3.9-3 .6-.9.8-2 .9-3.4H69.8v-.7c0-3.8.3-7.2.9-10.4h-5.2v-6.4h7c1-2.4 2.2-4.5 3.6-6.3l-5.7-3.3-.8-.4.6-.7c.3-.4.7-.8 1-1.2L54.8 71l-.7-.4.5-.7c2-2.4 4.1-4.6 6.4-6.7 2.3-2 4.8-3.8 7.5-5.5l.3-.2.3.2L72 59l.2-2.9v-.4l.4-.2c3.6-1.8 7.5-3.2 11.5-4.1 3.9-.9 8-1.4 12.1-1.4 1.3 0 2.6 0 3.9.1 1.3.1 2.6.2 3.9.4l.4.1.1.4 1.1 3.2 2.4-2.5.3-.3.4.1c5.4 1.3 10.6 3.4 15.2 6.3 4.7 2.9 9 6.5 12.6 10.6l.3.3-.1.4-1 2.9 2.9-.4.4-.1.3.3c2.7 3.7 5 7.8 6.8 12.1 1.7 4.3 2.8 8.8 3.4 13.5l.1.8h-20.7l-7.8.1h.2-.2z" class="st1"/><path d="M67 94.2v2.9h23.5l.1.3c.6 1.1 1.7 1.7 2.9 1.7 1.9 0 3.4-1.5 3.4-3.4s-1.5-3.4-3.4-3.4c-1.2 0-2.2.6-2.8 1.6l-.2.2H67v.1zm117 56.4c-6.9 11.5-16.2 21.4-27.1 29.2L44.6 181c-10-6.8-18.7-15.5-25.6-25.5l165-4.9z" class="st2"/><path d="M121.4 169.3v3.3c-.1 1.8-.4 2.2-1.7 2.2-.5 0-.5.7 0 .7h6.1c.5 0 .5-.7 0-.7-1.2 0-1.6-.4-1.7-1.9v-.7c-.1-1.9-.1-3.9-.1-5.9 0-1.8-.1-3.6.1-5.3.1-.9.8-1.1 1.6-1.1.5 0 .5-.7 0-.7h-6.1c-.5 0-.5.7 0 .7 1.3 0 1.7.5 1.7 2.3v7.1h.1zm-73.9 13.8c-1.5-1-3-1.9-4.5-3h79c-5.4-1.2-11.4-9.7-13.1-12.4 2.3-.2 5.5-1.6 5.5-4.1-.1-3.6-4.1-3.5-6.7-3.5v6.6c0 2.3-.2 4.8-1 6.3-1.1 2-3.6 2.9-6.1 2.9-2.4 0-4.9-.9-6-2.8-.8-1.5-1-3.9-1-6.1 0-1.7.1-3 .1-4.5 0-.6 0-1.3-.2-1.5-.7-.8-3.5-.9-5.3-.9h-1l.1 12.1c0 2.1.3 2.6 1.7 2.6.5 0 .5.7 0 .7h-6.3c-.5 0-.5-.7 0-.7 1.1 0 1.5-.3 1.7-1.4.1-1.5.1-3.9.1-6.2v-7h-1.9c-2 0-4.6.2-4.7 1.3l-.2 13.7c0 .3 0 .7-.3.7-.7 0-10.8-10.8-12.3-12.4l.2 8.8v-.1c0 2.1.3 2.6 1.7 2.6.5 0 .5.7 0 .7h-5.3c-.5 0-.5-.7 0-.7 1.3 0 1.7-.5 1.7-2.4 0-1.4.1-4.7.2-12.9 0-.3.1-.7.4-.7.1 0 .2 0 .3.2l7.1 7.5 5 5-.2-9.6c-.1-1.5-.5-1.9-1.7-1.9-.5 0-.5-.7 0-.7 3.4 0 7.8.1 11.4.1 4.5 0 8-.1 12.3-.1.5 0 .5.7 0 .7-1.1 0-1.5.3-1.6 1.4-.1.8-.1 1.8-.1 2.9 0 2.8.2 5.9.2 6.3.4 3 2.3 4.2 4.2 4.2 1.6 0 3.1-.9 3.7-2.2.5-1.1.6-3.1.6-5.1v-5c0-2.1-.3-2.6-1.7-2.6-.5 0-.5-.7 0-.7h6.3c3.1 0 7.3.2 7.3 4 0 3.2-3.4 4.3-5.4 4.9 1.2 1.3 10.8 11.8 13.8 11.9h1.6c0 .1-.1.3-.2.4l-79.4 2.7zm-11.7-8.7c-1-.9-2-1.7-2.9-2.6-.8-1.2-1.3-2.8-1.3-4.6 0-6.4 5-8.5 9.9-8.5 1.3 0 2.6.1 3.9.4.5.1 1.4 0 1.4.6v.1c-.2.8-.3 1.7-.5 2.6-.1.5-.8.5-.7 0 .1-.7-.1-1.2-.7-1.6-.7-.4-1.4-.5-2.1-.7-.7-.1-1.4-.2-2-.2-4.3 0-6.1 3.2-6.1 6.6 0 4.8 3.3 8.2 7.5 8.2 1.5 0 3.5-.2 3.8-2 .1-.5.8-.5.7 0-.1.7-.3 1.4-.4 2-.3 1.2-3.5 1.2-4.5 1.2-2.2-.1-4.3-.6-6-1.5zm114.8 1.1c.5 0 .5-.7 0-.7-1.2 0-1.6-.4-1.7-2v-.2l-.2-9.2c1.6 1.7 11.7 12.5 12.4 12.5.3 0 .3-.5.3-.7l.3-13c0-1.4.1-2.4 1.7-2.4.5 0 .5-.7 0-.7h-5.3c-.5 0-.5.7 0 .7 1.2 0 1.6.4 1.7 1.8l.3 9.8-5-5-7.1-7.5c-.1-.1-.2-.2-.3-.2-.2 0-.4.4-.4.7l-.2 12.9v.4c-.1 1.6-.5 2-1.7 2-.5 0-.5.7 0 .7h5.2v.1zm-90.8-6.9c-.1.4-.8.5-.7 0 .1-.6 0-.9-.6-1.1-.7-.2-1.7-.2-2.5-.2h-2.9c0 1.9-.1 3.5-.1 4.5 0 2.5.4 2.6 3.4 2.6h1.5-.2c1.4 0 2.4-.3 2.7-1.7.1-.5.8-.5.7 0 0 0-.3 1.7-.4 2.9H48.5c-.5 0-.5-.7 0-.7 1 0 1.4-.3 1.6-1.1.1-.5.1-1 .1-1.5v-9.8.1c0-2.1-.3-2.6-1.7-2.6-.5 0-.5-.7 0-.7h9.2c1.6 0 2.4-.2 2.7-.2.1 0 .4.1.4.3-.3 1-.4 2-.6 3.1-.1.5-.8.5-.7 0 .1-1.1-.1-1.8-.8-2-.9-.2-2.3-.2-3.5-.2h-2.1v5.9h4.8c1.3 0 1.7-.3 1.8-.9.1-.5.8-.5.7 0-.1 1.1-.3 2-.6 3.3zm3.9-14.3h118l2.4-3.8-120.4 3.8zm72.1 21.6c6 0 9.1-4.5 9.1-8.9 0-4-2.7-8.2-8.6-8.2-5 0-9.2 3.4-9.2 8.8-.1 4.7 3.5 8.3 8.7 8.3zm.9-1.1c-4.6 0-6.7-4.3-6.7-8.2 0-4 2.1-6.8 5.4-6.8 3.2 0 6.4 2.8 6.4 7.9 0 3.5-1.3 7.1-5.1 7.1z" class="st1"/><path d="M99.9 51.7c-.3 0-.5 0-.8-.1l-1.7 15.2L96 51.5c-4 0-8 .5-11.7 1.3-.7.2-1.5.4-2.2.6l4 14.8-6.9-13.9c-1.9.7-3.8 1.4-5.7 2.3l-.3 3.5-.1 1-.9-.4-3.5-1.5c-1.6 1-3.2 2.1-4.7 3.2l9.6 12-12-10c-2 1.8-3.9 3.7-5.6 5.7l16 9.2c2.3-2.3 5-4.2 7.9-5.7L75.2 63l6.8 9.6c.2-.1.5-.2.7-.3 2.6-1.1 5.4-1.9 8.3-2.3l-.8-11.6 3.1 11.3c.8-.1 1.7-.1 2.5-.1 3.4 0 6.7.5 9.8 1.4l5.3-10.3L108 72c3.6 1.3 6.9 3.2 9.8 5.6l8.4-7.9-6.6 9.4c1.6 1.5 3.1 3.3 4.5 5.1l10.3-5.3-9 7.2c2 3.3 3.5 6.9 4.3 10.7H148c-.5-3.6-1.3-7.1-2.5-10.5l-15.1 4 14-6.9c-1.6-3.7-3.5-7.2-5.9-10.4l-3.7.5-1.2.2.4-1.1 1.2-3.6c-2.8-3.1-5.9-5.9-9.3-8.2l-10.3 11.5 7.7-13.2-.1-.1c-4.4-2.7-9.2-4.7-14.4-6l-2.9 3.1-.8.9-.4-1.1-1.4-3.9c-1.1-.1-2.2-.2-3.4-.3z" class="st2"/></svg>