<!-- Generated by IcoMoon.io -->
<svg version="1.1" xmlns="http://www.w3.org/2000/svg" width="19" height="32" viewBox="0 0 19 32">
<title>mobile</title>
<path d="M9.28 23.168c0.704 0 1.216-0.576 1.216-1.216 0-0.704-0.512-1.216-1.216-1.216s-1.216 0.512-1.216 1.216c0 0.64 0.512 1.216 1.216 1.216zM5.344 2.848h7.872c1.28 0 2.144 0.864 2.144 2.080v17.152c0 1.056-0.864 1.92-1.92 1.92h-8.32c-1.056 0-1.92-0.864-1.92-1.92v-17.152c0-1.216 0.864-2.080 2.144-2.080zM7.68 4.224c-0.224 0-0.384 0.192-0.384 0.416s0.16 0.416 0.384 0.416h3.2c0.224 0 0.384-0.192 0.384-0.416s-0.16-0.416-0.384-0.416h-3.2zM14.208 19.776v-12.704h-9.856v12.704h9.856z"></path>
</svg>
