<svg xmlns="http://www.w3.org/2000/svg" width="19" height="32" viewBox="0 0 19 32"><path d="M9.28 23.168c.704 0 1.216-.576 1.216-1.216 0-.704-.512-1.216-1.216-1.216s-1.216.512-1.216 1.216c0 .64.512 1.216 1.216 1.216zM5.344 2.848h7.872c1.28 0 2.144.864 2.144 2.08V22.08c0 1.056-.864 1.92-1.92 1.92H5.12a1.926 1.926 0 0 1-1.92-1.92V4.928c0-1.216.864-2.08 2.144-2.08zM7.68 4.224c-.224 0-.384.192-.384.416s.16.416.384.416h3.2c.224 0 .384-.192.384-.416s-.16-.416-.384-.416h-3.2zm6.528 15.552V7.072H4.352v12.704h9.856z"/></svg>